<?xml version="1.0" encoding="utf-8"?>
<svg width="460" height="460" viewBox="0 0 460 460" fill="none" xmlns="http://www.w3.org/2000/svg">
  <path d="M230 0C103.17 0 0 103.17 0 230C0 356.83 103.17 460 230 460C356.83 460 460 356.83 460 230C460 103.17 356.83 0 230 0C230 0 230 0 230 0ZM357.168 88.6719C359.928 88.6719 362.168 90.9119 362.168 93.6719C362.168 95.7219 361.877 97.8242 361.367 99.8242C363.027 99.7042 364.699 99.6289 366.289 99.6289C369.049 99.6289 371.289 101.869 371.289 104.629C371.289 107.389 369.049 109.57 366.289 109.57C360.239 109.57 353.174 110.733 347.344 111.973C346.764 116.943 342.699 120.879 337.559 120.879C334.029 120.879 330.099 121.105 327.109 121.445C329.879 124.995 335.41 132.266 330 141.426C322.29 154.426 307.906 148.666 300.176 145.566C296.386 144.056 292.252 142.042 289.492 142.402C288.822 142.412 288.229 142.427 287.129 144.277C286.499 145.337 286.26 146.335 286.27 147.715C286.35 155.405 300.677 167.564 312.207 177.344C332.677 194.704 358.146 216.298 343.066 241.738C332.136 260.148 314.136 259.469 297.656 253.789C288.146 262.029 274.112 264.531 264.102 264.531C261.012 264.531 258.34 264.296 256.27 263.906C251.24 262.986 246.617 260.608 243.047 257.168C242.357 257.888 241.737 258.647 240.957 259.297C238.327 261.497 234.679 262.898 226.699 265.918C223.819 266.998 220.121 268.409 216.191 270.039C216.911 271.059 217.666 271.994 218.516 272.754C219.916 274.064 221.752 274.959 224.082 275.469C226.512 276.069 229.513 275.684 232.363 275.254C232.363 275.254 259.629 271.094 259.629 271.094C259.629 271.094 235.566 284.57 235.566 284.57C232.086 286.51 228.285 288.464 223.555 289.004C222.175 289.214 220.775 289.316 219.355 289.316C215.875 289.316 212.35 288.69 209.18 287.48C205.13 286.02 201.133 283.685 197.383 280.605C197.143 280.405 196.968 280.18 196.738 279.98C192.278 282.98 188.666 286.238 187.266 289.668C186.646 291.208 186.132 293.44 187.832 297.07C193.102 308.29 213.061 304.132 240.781 297.012C268.261 289.942 299.455 281.919 310.645 305.859C319.955 325.729 299.556 336.307 289.746 341.387C289.566 341.477 289.389 341.57 289.199 341.66C291.119 341.79 292.979 341.938 294.609 342.168C304.979 343.628 312.716 351.745 313.066 361.465C313.226 366.265 313.572 377.452 301.992 388.262C300.062 390.062 297.626 390.957 295.176 390.957C294.926 390.957 294.684 390.821 294.434 390.801C293.054 392.281 291.218 393.854 288.828 395.254C288.798 396.554 288.818 397.767 288.828 399.277C288.828 399.277 288.848 403.945 288.848 403.945C288.848 406.705 286.608 408.945 283.848 408.945C281.088 408.945 278.848 406.705 278.848 403.945C278.848 403.945 278.828 399.375 278.828 399.375C278.828 399.075 278.819 398.835 278.809 398.555C277.389 398.755 275.965 398.965 274.355 398.965C271.595 398.965 269.355 396.725 269.355 393.965C269.355 391.205 271.595 388.965 274.355 388.965C280.215 388.965 283.903 386.891 286.113 384.961C284.443 381.171 285.13 376.623 288.32 373.633C293.26 369.023 293.186 365.698 293.086 362.168C293.096 362.488 292.596 362.083 291.816 361.973C290.296 361.763 288.51 361.673 286.66 361.562C278.49 361.053 267.279 360.363 262.949 351.113C256.029 336.323 271.977 328.073 280.547 323.633C284.317 321.683 292.131 317.611 292.891 315.371C292.871 315.371 292.81 315.005 292.52 314.355C288.35 305.435 265.712 311.266 245.742 316.406C216.042 324.026 182.407 332.686 169.707 305.566C166.037 297.706 165.7 289.608 168.73 282.148C171.87 274.428 178.28 268.283 185.84 263.203C185.84 262.243 185.932 261.282 186.172 260.352C186.802 257.872 188.401 255.85 190.371 254.16C191.451 239.85 201.099 226.885 207.129 221.855C208.679 220.565 210.34 219.552 212.07 218.672C211.58 215.912 211.562 212.488 211.562 207.578C211.562 205.258 211.544 202.69 211.484 200.02C210.434 200.25 209.26 200.304 208.34 200.684C206.61 201.384 205.108 202.578 203.828 204.238C202.398 205.948 201.664 208.559 201.074 210.879C201.074 210.879 194.746 235.801 194.746 235.801C194.746 235.801 191.27 210.312 191.27 210.312C190.77 206.712 190.359 202.515 191.719 198.125C192.859 193.855 195.286 189.663 198.516 186.523C201.336 183.693 204.847 181.267 208.867 179.297C208.797 179.067 208.761 178.804 208.691 178.574C205.411 168.274 200.142 166.836 194.922 166.836C183.462 166.836 179.578 178.552 174.668 206.582C170.598 229.842 165.516 258.789 138.926 258.789C117.456 258.789 115.568 238.945 114.648 229.395C114.618 229.015 114.571 228.614 114.531 228.184C114.511 228.214 114.493 228.242 114.473 228.262C109.143 236.272 98.8223 239.659 89.9023 236.309C83.7423 233.969 75.3467 227.965 70.1367 218.125C69.4667 216.855 69.1134 215.491 69.0234 214.141C68.0634 213.311 67.1119 212.341 66.1719 211.191C65.6319 211.171 65.0808 211.108 64.5508 210.918C62.5808 210.168 59.6666 210.156 55.9766 210.156C53.2166 210.156 50.9766 207.916 50.9766 205.156C50.9766 202.396 53.2166 200.156 55.9766 200.156C57.9966 200.156 59.8602 200.182 61.6602 200.312C61.5202 199.262 61.3281 198.279 61.3281 197.109C61.3281 194.349 63.5681 192.109 66.3281 192.109C69.0881 192.109 71.3281 194.349 71.3281 197.109C71.3281 200.629 72.5062 203.122 73.9062 204.922C74.0462 204.832 74.1469 204.709 74.2969 204.629C79.1969 202.039 85.2225 203.919 87.8125 208.789C90.2425 213.389 94.2727 216.587 96.9727 217.617C98.4326 216.307 98.9436 215.439 99.4336 214.629C102.124 210.189 106.186 203.457 116.426 203.457C132.266 203.457 133.811 219.71 134.551 227.52C135.621 238.82 136.526 238.828 138.926 238.828C148.026 238.828 151.181 224.704 154.961 203.164C159.351 178.084 164.812 146.875 194.922 146.875C210.832 146.875 222.494 155.989 227.754 172.539C228.104 173.669 228.43 174.807 228.73 175.957C229.15 176.107 229.551 176.275 229.941 176.465C246.241 181.055 257.229 197.58 260.059 205.82C261.179 209.06 261.511 212.413 261.191 215.723C262.671 215.743 264.145 215.833 265.645 216.113C269.255 216.763 273.121 219.024 279.531 222.734C282.141 224.254 284.65 225.643 287.09 226.973C288.03 225.133 288.657 223.351 288.867 221.641C289.077 220.011 288.75 218.332 287.91 216.582C287.06 214.662 284.976 212.801 283.086 211.211C283.086 211.211 262.051 193.555 262.051 193.555C262.051 193.555 287.969 202.676 287.969 202.676C291.759 204.006 295.723 205.562 299.043 208.652C302.483 211.582 305.174 215.613 306.504 219.863C307.744 223.623 308.258 227.853 307.988 232.363C307.888 233.623 307.68 234.787 307.52 235.977C316.04 238.347 322.34 237.462 325.82 231.582C331.84 221.432 319.208 209.577 299.238 192.637C282.358 178.307 266.4 164.79 266.23 147.93C266.2 142.91 267.432 138.252 269.902 134.102C275.472 124.702 283.364 122.562 289.004 122.422C295.294 122.522 301.242 124.511 306.562 126.621C305.102 123.691 304.45 120.915 304.57 118.145C304.71 115.045 305.953 109.181 312.812 104.941C318.253 101.601 329.279 100.918 337.559 100.918C339.609 100.918 341.398 101.674 342.988 102.734C344.678 102.354 346.478 101.962 348.398 101.602C348.878 101.292 349.39 101.057 349.98 100.937C350.67 100.407 352.168 97.7619 352.168 93.6719C352.168 90.9119 354.408 88.6719 357.168 88.6719C357.168 88.6719 357.168 88.6719 357.168 88.6719ZM231.484 199.453C231.554 202.403 231.562 205.158 231.562 207.578C231.562 210.498 231.558 214.116 231.738 215.176C232.378 216.896 235.376 218.125 238.086 217.305C239.856 216.755 240.647 215.64 240.957 215.02C241.267 214.41 241.562 213.445 241.172 212.305C240.082 209.155 236.324 203.433 231.484 199.453C231.484 199.453 231.484 199.453 231.484 199.453ZM260.742 235.527C258.552 235.527 256.144 237.077 255.684 239.297C255.434 240.497 255.87 241.441 256.27 242.031C257.02 243.151 258.314 243.968 259.824 244.258C263.414 244.878 269.489 244.613 275.039 243.183C273.039 242.053 271.163 240.96 269.473 239.98C266.433 238.2 262.665 236.006 261.465 235.586C261.235 235.546 260.982 235.527 260.742 235.527C260.742 235.527 260.742 235.527 260.742 235.527ZM224.004 235.801C222.534 235.801 221.042 236.277 219.902 237.227C217.422 239.297 213.533 244.633 211.562 250.312C214.372 249.203 217.099 248.167 219.629 247.207C223.139 245.887 227.493 244.244 228.613 243.574C229.433 242.854 229.755 241.621 229.805 240.801C229.855 240.001 229.674 238.826 228.574 237.676C227.414 236.436 225.714 235.801 224.004 235.801C224.004 235.801 224.004 235.801 224.004 235.801Z" fill="#CCCCCC" />
</svg>